<mxfile host="65bd71144e">
    <diagram name="PÃ¡gina-1" id="UJ1OmEhqnFU_XP34G_GW">
        <mxGraphModel dx="942" dy="322" grid="1" gridSize="10" guides="1" tooltips="1" connect="1" arrows="1" fold="1" page="1" pageScale="1" pageWidth="827" pageHeight="1169" background="#000017" math="0" shadow="0">
            <root>
                <mxCell id="0"/>
                <mxCell id="1" parent="0"/>
                <mxCell id="M3jLAZqlqb8mngcjAcrj-3" style="edgeStyle=orthogonalEdgeStyle;rounded=0;orthogonalLoop=1;jettySize=auto;html=1;entryX=0;entryY=0.5;entryDx=0;entryDy=0;startArrow=oval;startFill=1;" parent="1" target="M3jLAZqlqb8mngcjAcrj-2" edge="1">
                    <mxGeometry relative="1" as="geometry">
                        <mxPoint x="43" y="540" as="sourcePoint"/>
                        <Array as="points">
                            <mxPoint x="43" y="490"/>
                        </Array>
                    </mxGeometry>
                </mxCell>
                <mxCell id="M3jLAZqlqb8mngcjAcrj-4" value="Voz" style="edgeLabel;html=1;align=center;verticalAlign=middle;resizable=0;points=[];" parent="M3jLAZqlqb8mngcjAcrj-3" vertex="1" connectable="0">
                    <mxGeometry x="-0.2" y="-2" relative="1" as="geometry">
                        <mxPoint x="-2" as="offset"/>
                    </mxGeometry>
                </mxCell>
                <mxCell id="M3jLAZqlqb8mngcjAcrj-8" style="edgeStyle=orthogonalEdgeStyle;rounded=0;orthogonalLoop=1;jettySize=auto;html=1;entryX=0;entryY=0.5;entryDx=0;entryDy=0;startArrow=oval;startFill=1;" parent="1" target="M3jLAZqlqb8mngcjAcrj-5" edge="1">
                    <mxGeometry relative="1" as="geometry">
                        <mxPoint x="68" y="585" as="sourcePoint"/>
                        <mxPoint x="158" y="700" as="targetPoint"/>
                    </mxGeometry>
                </mxCell>
                <mxCell id="M3jLAZqlqb8mngcjAcrj-9" value="Texto" style="edgeLabel;html=1;align=center;verticalAlign=middle;resizable=0;points=[];" parent="M3jLAZqlqb8mngcjAcrj-8" vertex="1" connectable="0">
                    <mxGeometry x="-0.261" y="2" relative="1" as="geometry">
                        <mxPoint x="27" y="2" as="offset"/>
                    </mxGeometry>
                </mxCell>
                <mxCell id="M3jLAZqlqb8mngcjAcrj-1" value="Humano" style="shape=umlActor;verticalLabelPosition=bottom;verticalAlign=top;html=1;outlineConnect=0;" parent="1" vertex="1">
                    <mxGeometry x="28" y="555" width="30" height="60" as="geometry"/>
                </mxCell>
                <mxCell id="M3jLAZqlqb8mngcjAcrj-7" style="edgeStyle=orthogonalEdgeStyle;rounded=0;orthogonalLoop=1;jettySize=auto;html=1;entryX=0.5;entryY=0;entryDx=0;entryDy=0;" parent="1" source="M3jLAZqlqb8mngcjAcrj-2" target="M3jLAZqlqb8mngcjAcrj-5" edge="1">
                    <mxGeometry relative="1" as="geometry">
                        <Array as="points">
                            <mxPoint x="278" y="490"/>
                        </Array>
                    </mxGeometry>
                </mxCell>
                <mxCell id="M3jLAZqlqb8mngcjAcrj-12" value="Texto" style="edgeLabel;html=1;align=center;verticalAlign=middle;resizable=0;points=[];" parent="M3jLAZqlqb8mngcjAcrj-7" vertex="1" connectable="0">
                    <mxGeometry x="-0.5434" y="-1" relative="1" as="geometry">
                        <mxPoint x="-1" y="-1" as="offset"/>
                    </mxGeometry>
                </mxCell>
                <mxCell id="M3jLAZqlqb8mngcjAcrj-2" value="&lt;b style=&quot;font-size: 11px;&quot;&gt;&lt;font style=&quot;font-size: 11px;&quot; color=&quot;#ffffff&quot;&gt;&lt;span style=&quot;font-size: 11px;&quot;&gt;Modelo de Voz a Texto&lt;/span&gt;&lt;br&gt;&lt;font style=&quot;font-size: 11px;&quot;&gt;(&lt;/font&gt;&lt;/font&gt;&lt;font style=&quot;font-size: 11px;&quot;&gt;Whisper&lt;/font&gt;&lt;/b&gt;&lt;font style=&quot;font-size: 11px;&quot; color=&quot;#ffffff&quot;&gt;&lt;b style=&quot;&quot;&gt;&lt;font style=&quot;font-size: 11px;&quot;&gt;)&lt;/font&gt;&lt;br&gt;&lt;/b&gt;&lt;/font&gt;" style="rounded=0;whiteSpace=wrap;html=1;" parent="1" vertex="1">
                    <mxGeometry x="68" y="460" width="140" height="60" as="geometry"/>
                </mxCell>
                <mxCell id="M3jLAZqlqb8mngcjAcrj-13" style="edgeStyle=orthogonalEdgeStyle;rounded=0;orthogonalLoop=1;jettySize=auto;html=1;entryX=0;entryY=0.5;entryDx=0;entryDy=0;exitX=1;exitY=0.5;exitDx=0;exitDy=0;" parent="1" source="M3jLAZqlqb8mngcjAcrj-5" target="M3jLAZqlqb8mngcjAcrj-11" edge="1">
                    <mxGeometry relative="1" as="geometry">
                        <mxPoint x="452" y="585" as="sourcePoint"/>
                        <Array as="points">
                            <mxPoint x="398" y="585"/>
                            <mxPoint x="398" y="585"/>
                        </Array>
                    </mxGeometry>
                </mxCell>
                <mxCell id="M3jLAZqlqb8mngcjAcrj-15" value="Texto" style="edgeLabel;html=1;align=center;verticalAlign=middle;resizable=0;points=[];" parent="M3jLAZqlqb8mngcjAcrj-13" vertex="1" connectable="0">
                    <mxGeometry x="-0.3868" relative="1" as="geometry">
                        <mxPoint x="8" as="offset"/>
                    </mxGeometry>
                </mxCell>
                <mxCell id="M3jLAZqlqb8mngcjAcrj-5" value="&lt;font style=&quot;&quot; color=&quot;#ffffff&quot;&gt;&lt;b&gt;Modelo de Lenguaje&lt;br&gt;(Chat GPT)&lt;br&gt;&lt;/b&gt;&lt;/font&gt;" style="rounded=0;whiteSpace=wrap;html=1;" parent="1" vertex="1">
                    <mxGeometry x="218" y="555" width="120" height="60" as="geometry"/>
                </mxCell>
                <mxCell id="M3jLAZqlqb8mngcjAcrj-17" style="edgeStyle=orthogonalEdgeStyle;rounded=0;orthogonalLoop=1;jettySize=auto;html=1;entryX=0;entryY=0.5;entryDx=0;entryDy=0;exitX=0.5;exitY=0;exitDx=0;exitDy=0;" parent="1" edge="1" target="M3jLAZqlqb8mngcjAcrj-16">
                    <mxGeometry relative="1" as="geometry">
                        <mxPoint x="457.71" y="555" as="sourcePoint"/>
                        <mxPoint x="457.71" y="510" as="targetPoint"/>
                        <Array as="points">
                            <mxPoint x="458" y="480"/>
                        </Array>
                    </mxGeometry>
                </mxCell>
                <mxCell id="3" value="Voz" style="edgeLabel;html=1;align=center;verticalAlign=middle;resizable=0;points=[];" vertex="1" connectable="0" parent="M3jLAZqlqb8mngcjAcrj-17">
                    <mxGeometry x="0.3082" relative="1" as="geometry">
                        <mxPoint y="35" as="offset"/>
                    </mxGeometry>
                </mxCell>
                <mxCell id="M3jLAZqlqb8mngcjAcrj-11" value="&lt;font style=&quot;&quot; color=&quot;#ffffff&quot;&gt;&lt;b&gt;Modelo de Texto a Voz&lt;br&gt;(*)&lt;br&gt;&lt;/b&gt;&lt;/font&gt;" style="rounded=0;whiteSpace=wrap;html=1;" parent="1" vertex="1">
                    <mxGeometry x="398" y="555" width="120" height="60" as="geometry"/>
                </mxCell>
                <mxCell id="M3jLAZqlqb8mngcjAcrj-16" value="&lt;font style=&quot;&quot; color=&quot;#ffffff&quot;&gt;&lt;b&gt;Modelo de Voz a Movimiento de Cabeza y habla&lt;br&gt;(*)&lt;br&gt;&lt;/b&gt;&lt;/font&gt;" style="rounded=0;whiteSpace=wrap;html=1;" parent="1" vertex="1">
                    <mxGeometry x="490" y="450" width="120" height="60" as="geometry"/>
                </mxCell>
                <mxCell id="M3jLAZqlqb8mngcjAcrj-24" style="edgeStyle=orthogonalEdgeStyle;rounded=0;orthogonalLoop=1;jettySize=auto;html=1;entryX=0.5;entryY=0;entryDx=0;entryDy=0;exitX=1;exitY=0.5;exitDx=0;exitDy=0;" parent="1" source="M3jLAZqlqb8mngcjAcrj-16" target="M3jLAZqlqb8mngcjAcrj-23" edge="1">
                    <mxGeometry relative="1" as="geometry">
                        <mxPoint x="637.9999999999998" y="510" as="sourcePoint"/>
                    </mxGeometry>
                </mxCell>
                <mxCell id="M3jLAZqlqb8mngcjAcrj-25" value="Movimiento y Sonido" style="edgeLabel;html=1;align=center;verticalAlign=middle;resizable=0;points=[];" parent="M3jLAZqlqb8mngcjAcrj-24" vertex="1" connectable="0">
                    <mxGeometry x="-0.2698" y="-1" relative="1" as="geometry">
                        <mxPoint x="1" y="34" as="offset"/>
                    </mxGeometry>
                </mxCell>
                <mxCell id="M3jLAZqlqb8mngcjAcrj-26" style="edgeStyle=orthogonalEdgeStyle;rounded=0;orthogonalLoop=1;jettySize=auto;html=1;" parent="1" source="M3jLAZqlqb8mngcjAcrj-23" target="M3jLAZqlqb8mngcjAcrj-27" edge="1">
                    <mxGeometry relative="1" as="geometry">
                        <mxPoint x="728" y="585" as="targetPoint"/>
                    </mxGeometry>
                </mxCell>
                <mxCell id="M3jLAZqlqb8mngcjAcrj-23" value="&lt;font style=&quot;&quot; color=&quot;#ffffff&quot;&gt;&lt;b&gt;Modelo de Cabeza Virtual a VTuber&lt;br&gt;&lt;/b&gt;&lt;/font&gt;" style="rounded=0;whiteSpace=wrap;html=1;" parent="1" vertex="1">
                    <mxGeometry x="578" y="555" width="120" height="60" as="geometry"/>
                </mxCell>
                <mxCell id="M3jLAZqlqb8mngcjAcrj-33" style="edgeStyle=orthogonalEdgeStyle;rounded=0;orthogonalLoop=1;jettySize=auto;html=1;startArrow=oval;startFill=1;" parent="1" edge="1">
                    <mxGeometry relative="1" as="geometry">
                        <mxPoint x="40" y="640" as="targetPoint"/>
                        <mxPoint x="790" y="585" as="sourcePoint"/>
                        <Array as="points">
                            <mxPoint x="800" y="585"/>
                            <mxPoint x="800" y="690"/>
                            <mxPoint x="40" y="690"/>
                        </Array>
                    </mxGeometry>
                </mxCell>
                <mxCell id="M3jLAZqlqb8mngcjAcrj-34" value="Respuesta (Movimiento Interactivo + Voz)" style="edgeLabel;html=1;align=center;verticalAlign=middle;resizable=0;points=[];" parent="M3jLAZqlqb8mngcjAcrj-33" vertex="1" connectable="0">
                    <mxGeometry x="0.0323" y="-2" relative="1" as="geometry">
                        <mxPoint x="-24" as="offset"/>
                    </mxGeometry>
                </mxCell>
                <mxCell id="M3jLAZqlqb8mngcjAcrj-27" value="IA (Nyx)" style="shape=umlActor;verticalLabelPosition=bottom;verticalAlign=top;html=1;outlineConnect=0;" parent="1" vertex="1">
                    <mxGeometry x="748" y="555" width="30" height="60" as="geometry"/>
                </mxCell>
            </root>
        </mxGraphModel>
    </diagram>
</mxfile>